Coordinates
version=1
nRows=9
nColumns=36
inDegrees=yes

Units are S.I. units (second, meters, Newtons, ...)
If the header above contains a line with 'inDegrees', this indicates whether rotational values are in degrees (yes) or radians (no).

endheader
time	pelvis_tilt	pelvis_list	pelvis_rotation	pelvis_tx	pelvis_ty	pelvis_tz	hip_flexion_r	hip_adduction_r	hip_rotation_r	knee_angle_r	knee_angle_r_beta	ankle_angle_r	subtalar_angle_r	mtp_angle_r	hip_flexion_l	hip_adduction_l	hip_rotation_l	knee_angle_l	knee_angle_l_beta	ankle_angle_l	subtalar_angle_l	mtp_angle_l	lumbar_extension	lumbar_bending	lumbar_rotation	arm_flex_r	arm_add_r	arm_rot_r	elbow_flex_r	pro_sup_r	arm_flex_l	arm_add_l	arm_rot_l	elbow_flex_l	pro_sup_l
      1.70000000	     -0.66722021	      0.54617447	     -1.18844379	     -0.82846345	      1.26123085	     -0.09716648	     -5.57227594	      1.48761671	      3.71608015	      0.50535723	      0.00882015	      3.56215607	    -10.59332235	     -7.49999987	     -5.26329744	      1.51740731	      4.73133226	      0.36779537	      0.00641924	      5.74992235	     -3.54252275	     -7.49999987	     -8.69234810	      0.85852756	      1.35377453	      7.75416243	     -6.91060213	     17.98656962	     23.55070389	     70.52185132	      5.92468551	     -7.05713026	     18.09433869	     25.95849770	     71.42618199
      1.70416670	     -0.70774007	      0.54645809	     -1.21042161	     -0.82788359	      1.26264758	     -0.09679649	     -5.51866646	      1.50503620	      3.66785682	      0.50237451	      0.00876809	      3.65624290	    -10.38001524	     -7.49999987	     -5.19694088	      1.53961573	      4.58263651	      0.36414741	      0.00635557	      5.83402483	     -3.21587198	     -7.49999987	     -8.64325998	      0.83333762	      1.35566566	      7.68773303	     -6.74515156	     16.27992032	     23.42164850	     75.62406505	      5.84855833	     -6.91580024	     16.44276722	     25.81981219	     77.26906119
      1.70833330	     -0.65229332	      0.52406347	     -1.18470595	     -0.82860574	      1.25994500	     -0.09721363	     -5.59028940	      1.53286514	      3.50337812	      0.50759347	      0.00885918	      3.77553579	    -10.08376746	     -7.49999987	     -5.25915553	      1.52769932	      4.46737486	      0.36499990	      0.00637045	      6.06545187	     -2.95163658	     -7.49999987	     -8.71117571	      0.87032745	      1.32108555	      7.70443952	     -6.72177680	     16.21012947	     23.42266307	     74.29167343	      5.88760510	     -6.83474918	     16.35106807	     25.76963784	     75.80307431
      1.71250000	     -0.69313644	      0.53480340	     -1.18442181	     -0.82854907	      1.26227338	     -0.09700337	     -5.55801856	      1.52699400	      3.64385576	      0.51198630	      0.00893585	      3.63208099	    -10.43247346	     -7.49999987	     -5.20537699	      1.55030641	      4.66613984	      0.36221085	      0.00632177	      5.91825544	     -3.28848304	     -7.49999987	     -8.65797930	      0.87109100	      1.28735917	      7.71296914	     -6.81240560	     16.67460391	     23.47438455	     74.04463042	      5.88271538	     -6.90531604	     16.79750443	     25.80115133	     75.52576878
      1.71666670	     -0.62963191	      0.49257205	     -1.18395786	     -0.82858808	      1.26229492	     -0.09718328	     -5.62804496	      1.56945063	      3.49162921	      0.51288849	      0.00895159	      3.83132737	     -9.94610338	     -7.49999987	     -5.27322370	      1.51316600	      4.48824014	      0.36430930	      0.00635840	      6.12383055	     -2.92963594	     -7.49999987	     -8.74960060	      0.91568097	      1.29778068	      7.73584946	     -6.78152182	     16.65196826	     23.43143640	     72.94047784	      5.91489876	     -6.87462687	     16.74421649	     25.71903389	     74.31556903
      1.72083330	     -0.68566744	      0.49058857	     -1.15084414	     -0.82894225	      1.26179592	     -0.09705595	     -5.57164177	      1.57963630	      3.67209949	      0.51975764	      0.00907148	      3.65536986	    -10.27388599	     -7.49999987	     -5.18751800	      1.52122712	      4.71680604	      0.36093484	      0.00629950	      6.15862397	     -3.05649090	     -7.49999987	     -8.71314301	      0.93318016	      1.29631313	      7.73398581	     -6.86645441	     16.66351257	     23.43282745	     75.21084835	      5.94052043	     -6.91551312	     16.68619513	     25.76335721	     77.01495208
      1.72500000	     -0.65167607	      0.44279743	     -1.17720085	     -0.82896984	      1.26277574	     -0.09712625	     -5.59703904	      1.63712207	      3.75914220	      0.52241786	      0.00911791	      3.72681883	    -10.21329127	     -7.49999987	     -5.21280810	      1.47089860	      4.68141936	      0.35928137	      0.00627064	      6.20733702	     -3.00518526	     -7.49999987	     -8.79274766	      0.98309760	      1.28756995	      7.75366291	     -6.83862427	     16.69655094	     23.53714355	     73.95463488	      5.89007081	     -6.91319537	     16.67871053	     25.82276429	     75.60435671
      1.72916670	     -0.63224713	      0.44778937	     -1.16475492	     -0.82877324	      1.26230803	     -0.09719288	     -5.60598149	      1.61394994	      3.64725499	      0.51881815	      0.00905508	      3.84454323	     -9.94866179	     -7.49999987	     -5.22843210	      1.49149054	      4.69661172	      0.36068829	      0.00629520	      6.26512652	     -2.95340254	     -7.49999987	     -8.84917087	      0.99836294	      1.26166670	      7.77731969	     -6.85226571	     16.66202821	     23.57405369	     73.09250861	      5.88982011	     -6.86582334	     16.61975088	     25.84231335	     74.63439878
      1.73333330	     -0.60513000	      0.43871965	     -1.14411034	     -0.82820896	      1.26206094	     -0.09717120	     -5.62303302	      1.61373360	      3.33816800	      0.52097568	      0.00909274	      4.22890335	     -9.27822974	     -7.49999987	     -5.26760302	      1.47542429	      4.46909011	      0.36658410	      0.00639810	      6.50920326	     -2.48492154	     -7.49999987	     -8.82352174	      1.00659869	      1.22971348	      7.87132908	     -6.77798754	     16.67339337	     23.21172369	     72.10889149	      5.97340308	     -6.78856934	     16.58380993	     25.46850047	     73.51601907
